<?xml version="1.0" encoding="UTF-8" standalone="no"?>
<!-- Created with Inkscape (http://www.inkscape.org/) -->

<svg
   width="128"
   height="128"
   viewBox="0 0 33.866666 33.866666"
   version="1.1"
   id="svg1"
   xml:space="preserve"
   inkscape:version="1.3.2 (091e20e, 2023-11-25, custom)"
   sodipodi:docname="CameraManager2D_inkscape.svg"
   inkscape:export-filename="CameraManager2D.png"
   inkscape:export-xdpi="96"
   inkscape:export-ydpi="96"
   xmlns:inkscape="http://www.inkscape.org/namespaces/inkscape"
   xmlns:sodipodi="http://sodipodi.sourceforge.net/DTD/sodipodi-0.dtd"
   xmlns="http://www.w3.org/2000/svg"
   xmlns:svg="http://www.w3.org/2000/svg"><sodipodi:namedview
     id="namedview1"
     pagecolor="#ffffff"
     bordercolor="#000000"
     borderopacity="0.25"
     inkscape:showpageshadow="2"
     inkscape:pageopacity="0.0"
     inkscape:pagecheckerboard="true"
     inkscape:deskcolor="#d1d1d1"
     inkscape:document-units="px"
     inkscape:zoom="4.2190797"
     inkscape:cx="60.084193"
     inkscape:cy="65.654128"
     inkscape:window-width="1440"
     inkscape:window-height="830"
     inkscape:window-x="-6"
     inkscape:window-y="-6"
     inkscape:window-maximized="1"
     inkscape:current-layer="layer1" /><defs
     id="defs1"><inkscape:perspective
       sodipodi:type="inkscape:persp3d"
       inkscape:vp_x="0 : 16.933333 : 1"
       inkscape:vp_y="0 : 1000 : 0"
       inkscape:vp_z="33.866666 : 16.933333 : 1"
       inkscape:persp3d-origin="16.933333 : 11.288889 : 1"
       id="perspective3" /></defs><g
     inkscape:label="Layer 1"
     inkscape:groupmode="layer"
     id="layer1"><path
       d="m 10.593194,7.1068778 a 3.2769301,3.2769301 0 0 0 -3.2769294,3.0333452 3.2769301,3.2769301 0 1 0 -3.27693,5.512888 v 2.376866 a 1.09231,1.09231 0 0 0 1.0923087,1.092312 h 6.5538597 a 1.09231,1.09231 0 0 0 1.092313,-1.092312 v -1.09231 l 3.27693,2.184622 v -6.55386 l -3.27693,2.184617 V 12.819659 A 3.2769301,3.2769301 0 0 0 10.593194,7.1068778 Z"
       fill="#8da5f3"
       id="path1"
       style="fill:#1339b4;fill-opacity:1;stroke-width:1.09231" /><path
       d="m 25.706581,3.0933643 a 3.2769301,3.2769301 0 0 0 -3.27693,3.033346 3.2769301,3.2769301 0 1 0 -3.27693,5.5128877 v 2.376866 a 1.09231,1.09231 0 0 0 1.092309,1.092312 h 6.55386 a 1.09231,1.09231 0 0 0 1.092313,-1.092312 v -1.09231 l 3.27693,2.184622 V 8.5549163 l -3.27693,2.1846167 V 8.8061463 a 3.2769301,3.2769301 0 0 0 -2.184622,-5.712782 z"
       fill="#8da5f3"
       id="path2"
       style="stroke-width:1.09231;fill:#4a6fec;fill-opacity:1" /><path
       d="m 22.006622,18.708441 a 3.2769301,3.2769301 0 0 0 -3.276929,3.033346 3.2769301,3.2769301 0 1 0 -3.27693,5.512888 v 2.376866 a 1.09231,1.09231 0 0 0 1.092309,1.092312 h 6.553859 a 1.09231,1.09231 0 0 0 1.092313,-1.092312 v -1.09231 l 3.27693,2.184622 v -6.55386 l -3.27693,2.184617 v -1.933387 a 3.2769301,3.2769301 0 0 0 -2.184622,-5.712782 z"
       fill="#8da5f3"
       id="path3"
       style="stroke-width:1.09231" /><text
       xml:space="preserve"
       style="font-style:normal;font-variant:normal;font-weight:normal;font-stretch:normal;font-size:8.46667px;font-family:Impact;-inkscape-font-specification:'Impact, Normal';font-variant-ligatures:normal;font-variant-caps:normal;font-variant-numeric:normal;font-variant-east-asian:normal;fill:#aab4d6;fill-opacity:1;stroke-width:0.264583"
       x="8.0025349"
       y="19.161163"
       id="text2"><tspan
         sodipodi:role="line"
         id="tspan2"
         style="font-style:normal;font-variant:normal;font-weight:normal;font-stretch:normal;font-size:8.46667px;font-family:Impact;-inkscape-font-specification:'Impact, Normal';font-variant-ligatures:normal;font-variant-caps:normal;font-variant-numeric:normal;font-variant-east-asian:normal;fill:#ff9b22;fill-opacity:1;stroke-width:0.264583"
         x="8.0025349"
         y="19.161163">M</tspan></text><text
       xml:space="preserve"
       style="font-style:normal;font-variant:normal;font-weight:normal;font-stretch:normal;font-size:8.46667px;font-family:Impact;-inkscape-font-specification:'Impact, Normal';font-variant-ligatures:normal;font-variant-caps:normal;font-variant-numeric:normal;font-variant-east-asian:normal;fill:#aab4d6;fill-opacity:1;stroke-width:0.264583"
       x="23.554899"
       y="15.084938"
       id="text9"><tspan
         sodipodi:role="line"
         id="tspan9"
         style="font-style:normal;font-variant:normal;font-weight:normal;font-stretch:normal;font-size:8.46667px;font-family:Impact;-inkscape-font-specification:'Impact, Normal';font-variant-ligatures:normal;font-variant-caps:normal;font-variant-numeric:normal;font-variant-east-asian:normal;fill:#ff9b22;fill-opacity:1;stroke-width:0.264583"
         x="23.554899"
         y="15.084938">M</tspan></text><text
       xml:space="preserve"
       style="font-style:normal;font-variant:normal;font-weight:normal;font-stretch:normal;font-size:8.46667px;font-family:Impact;-inkscape-font-specification:'Impact, Normal';font-variant-ligatures:normal;font-variant-caps:normal;font-variant-numeric:normal;font-variant-east-asian:normal;fill:#aab4d6;fill-opacity:1;stroke-width:0.264583"
       x="19.917652"
       y="30.700014"
       id="text10"><tspan
         sodipodi:role="line"
         id="tspan10"
         style="font-style:normal;font-variant:normal;font-weight:normal;font-stretch:normal;font-size:8.46667px;font-family:Impact;-inkscape-font-specification:'Impact, Normal';font-variant-ligatures:normal;font-variant-caps:normal;font-variant-numeric:normal;font-variant-east-asian:normal;fill:#ff9b22;fill-opacity:1;stroke-width:0.264583"
         x="19.917652"
         y="30.700014">M</tspan></text></g></svg>
